<svg xmlns="http://www.w3.org/2000/svg" viewBox="0 0 1024 768" fill="none">
  <defs>
    <linearGradient id="brainFill" x1="256" y1="220" x2="780" y2="620" gradientUnits="userSpaceOnUse">
      <stop offset="0" stop-color="#FFD9D9" />
      <stop offset="0.58" stop-color="#F8B4B4" />
      <stop offset="1" stop-color="#F09D9D" />
    </linearGradient>
    <radialGradient id="brainLight" cx="0" cy="0" r="1" gradientUnits="userSpaceOnUse" gradientTransform="translate(418 312) rotate(24) scale(312 236)">
      <stop offset="0" stop-color="#FFFFFF" stop-opacity="0.62" />
      <stop offset="1" stop-color="#FFFFFF" stop-opacity="0" />
    </radialGradient>
    <linearGradient id="capTop" x1="332" y1="114" x2="706" y2="238" gradientUnits="userSpaceOnUse">
      <stop offset="0" stop-color="#3C3142" />
      <stop offset="1" stop-color="#241B2D" />
    </linearGradient>
    <linearGradient id="eyeIris" x1="412" y1="356" x2="412" y2="472" gradientUnits="userSpaceOnUse">
      <stop offset="0" stop-color="#4B3A4D" />
      <stop offset="1" stop-color="#231A28" />
    </linearGradient>
    <linearGradient id="eyeIrisRight" x1="612" y1="356" x2="612" y2="472" gradientUnits="userSpaceOnUse">
      <stop offset="0" stop-color="#4B3A4D" />
      <stop offset="1" stop-color="#231A28" />
    </linearGradient>
    <linearGradient id="limbFill" x1="224" y1="384" x2="814" y2="646" gradientUnits="userSpaceOnUse">
      <stop offset="0" stop-color="#FF8697" />
      <stop offset="1" stop-color="#F2647A" />
    </linearGradient>
    <radialGradient id="groundShadow" cx="0" cy="0" r="1" gradientUnits="userSpaceOnUse" gradientTransform="translate(512 648) scale(194 32)">
      <stop offset="0" stop-color="#A34354" stop-opacity="0.34" />
      <stop offset="1" stop-color="#A34354" stop-opacity="0" />
    </radialGradient>
  </defs>

  <ellipse cx="512" cy="648" rx="194" ry="32" fill="url(#groundShadow)" />
  <ellipse cx="512" cy="648" rx="126" ry="18" fill="#C45364" opacity="0.26" />

  <g id="extremidades">
    <path
      d="M308 474C276 469 250 455 232 429"
      stroke="url(#limbFill)"
      stroke-width="22"
      stroke-linecap="round"
      stroke-linejoin="round"
    />
    <path
      d="M231 429C220 409 194 405 179 418C163 432 166 455 190 463C203 477 224 482 241 470"
      fill="#FF8697"
      stroke="#F15E74"
      stroke-width="3"
      stroke-linejoin="round"
    />
    <path
      d="M721 530C742 550 757 574 766 600"
      stroke="url(#limbFill)"
      stroke-width="22"
      stroke-linecap="round"
      stroke-linejoin="round"
    />
    <path
      d="M767 600C760 615 776 631 793 625C810 618 814 595 799 584C788 575 772 585 767 600Z"
      fill="#FF8697"
      stroke="#F15E74"
      stroke-width="3"
    />
    <rect x="452" y="572" width="38" height="84" rx="17" fill="url(#limbFill)" stroke="#F15E74" stroke-width="3" />
    <rect x="534" y="572" width="38" height="84" rx="17" fill="url(#limbFill)" stroke="#F15E74" stroke-width="3" />
    <rect x="442" y="634" width="58" height="34" rx="17" fill="#FF8C9C" stroke="#F15E74" stroke-width="3" />
    <rect x="524" y="634" width="58" height="34" rx="17" fill="#FF8C9C" stroke="#F15E74" stroke-width="3" />
  </g>

  <g id="cuerpo">
    <path
      d="M512 220C474 191 418 191 385 228C334 222 290 256 290 306C243 317 217 366 234 414C211 454 224 511 272 534C265 584 305 623 358 623C381 665 438 683 486 658C511 681 556 684 584 658C632 683 690 665 712 622C766 623 806 584 798 534C846 511 859 454 836 414C853 366 827 317 780 306C780 256 736 222 685 228C652 191 596 191 558 220C542 210 527 204 512 204C497 204 482 210 466 220H512Z"
      fill="url(#brainFill)"
      stroke="#FF6F7B"
      stroke-width="6"
      stroke-linejoin="round"
    />
    <path
      d="M512 244C478 221 426 222 395 255C355 251 320 279 320 319C280 332 258 373 272 409C252 444 265 492 306 511C300 552 331 583 376 582C396 616 446 631 486 610C508 628 546 630 570 611C610 631 660 616 680 582C725 583 756 552 750 511C791 492 804 444 784 409C798 373 776 332 736 319C736 279 701 251 661 255C630 222 578 221 544 244C533 237 522 233 512 233C502 233 491 237 480 244H512Z"
      fill="url(#brainLight)"
    />
    <g stroke="#FF6B77" stroke-width="9" stroke-linecap="round" fill="none">
      <path d="M374 338C353 352 345 379 353 402" />
      <path d="M430 286C410 304 409 339 429 357" />
      <path d="M510 264V373" />
      <path d="M594 286C614 304 615 339 595 357" />
      <path d="M651 338C672 352 680 379 672 402" />
      <path d="M395 470C387 490 365 498 345 491" />
      <path d="M449 520C443 542 420 555 401 546" />
      <path d="M493 506C500 528 521 541 539 532" />
      <path d="M639 470C647 490 669 498 689 491" />
      <path d="M585 520C591 542 614 555 633 546" />
      <path d="M462 392C445 379 420 378 403 391" />
      <path d="M624 392C607 379 582 378 565 391" />
      <path d="M338 414C340 434 354 447 374 448" />
      <path d="M686 414C684 434 670 447 650 448" />
    </g>
  </g>

  <g id="rostro">
    <circle cx="412" cy="410" r="61" fill="#FFF9F9" />
    <circle cx="612" cy="410" r="61" fill="#FFF9F9" />
    <circle cx="412" cy="410" r="36" fill="url(#eyeIris)" />
    <circle cx="612" cy="410" r="36" fill="url(#eyeIrisRight)" />
    <circle cx="427" cy="392" r="10.5" fill="#FFFFFF" />
    <circle cx="627" cy="392" r="10.5" fill="#FFFFFF" />
    <circle cx="438" cy="420" r="8" fill="#59435A" />
    <circle cx="638" cy="420" r="8" fill="#59435A" />
    <path d="M476 446C485 463 503 473 512 473C521 473 539 463 548 446C536 455 524 459 512 459C500 459 488 455 476 446Z" fill="#20111D" />
    <path d="M495 458C500 466 510 471 512 471C514 471 524 466 529 458C523 462 518 464 512 464C506 464 501 462 495 458Z" fill="#FF7B93" />
    <ellipse cx="370" cy="451" rx="23" ry="11" fill="#F7A8B7" opacity="0.35" />
    <ellipse cx="655" cy="451" rx="23" ry="11" fill="#F7A8B7" opacity="0.35" />
  </g>

  <g id="gafas">
    <circle cx="412" cy="410" r="76" fill="none" stroke="#2B202C" stroke-width="16" />
    <circle cx="612" cy="410" r="76" fill="none" stroke="#2B202C" stroke-width="16" />
    <path d="M488 391C498 384 526 384 536 391" stroke="#2B202C" stroke-width="15" stroke-linecap="round" />
    <path d="M338 370C369 353 400 346 434 352" stroke="#2B202C" stroke-width="18" stroke-linecap="round" />
    <path d="M586 352C620 346 651 353 682 370" stroke="#2B202C" stroke-width="18" stroke-linecap="round" />
    <circle cx="318" cy="363" r="8" fill="#F4CDD1" stroke="#2B202C" stroke-width="4" />
    <circle cx="706" cy="363" r="8" fill="#F4CDD1" stroke="#2B202C" stroke-width="4" />
  </g>

  <g id="birrete">
    <path d="M292 182L512 112L732 182L512 252L292 182Z" fill="url(#capTop)" />
    <path d="M360 186C351 220 349 255 358 287C411 258 464 247 512 257C560 247 613 258 666 287C675 255 673 220 664 186C612 174 560 172 512 182C464 172 412 174 360 186Z" fill="#2D2334" />
    <path d="M360 186C412 174 464 172 512 182C560 172 612 174 664 186" stroke="#4A3B53" stroke-width="3" opacity="0.65" />
    <path d="M676 170C689 173 697 184 697 196V253" stroke="#F4C542" stroke-width="8" stroke-linecap="round" />
    <rect x="687" y="250" width="28" height="72" rx="14" fill="#F4C542" stroke="#DDAA2F" stroke-width="3" />
    <line x1="696" y1="255" x2="696" y2="316" stroke="#FFD873" stroke-width="5" stroke-linecap="round" />
    <line x1="705" y1="255" x2="705" y2="316" stroke="#FFD873" stroke-width="5" stroke-linecap="round" />
    <circle cx="697" cy="250" r="14" fill="#FFCF57" stroke="#DDAA2F" stroke-width="3" />
  </g>
</svg>
